<?xml version="1.0" encoding="UTF-8"?>
<svg id="uuid-110ada69-1384-4d40-807c-96d9f22ec229" data-name="图层 1" xmlns="http://www.w3.org/2000/svg" xmlns:xlink="http://www.w3.org/1999/xlink" viewBox="0 0 1262.65 423.39">
  <defs>
    <style>
      .uuid-a02ba52c-5ef1-4560-8f27-1dd1fe794817 {
        fill: #ffb333;
      }

      .uuid-9c806cd6-05ab-4ae4-a46e-deb9ba5c4ec5 {
        clip-path: url(#uuid-8da7b652-47f6-4b58-9409-7e0cf7e90f64);
      }

      .uuid-cf4eaf75-0b1b-4aec-8404-cb2949b5b5b0 {
        clip-path: url(#uuid-92a13139-d108-4fde-a012-781bd4b0a9ed);
      }

      .uuid-655b93f4-d8cc-4160-a9cf-56b87de8e65d {
        clip-path: url(#uuid-e976dfc4-a686-40e8-9b94-c55c24646a4f);
      }

      .uuid-1aafdf7e-12ba-4030-8182-dd1cc2e501dc {
        fill: none;
      }

      .uuid-151f42b9-48da-4d39-9a24-4b80ffb5add7 {
        fill: url(#uuid-25fc7974-6911-431f-bcd0-436b5490ff39);
      }

      .uuid-158bdafa-8bcd-4e66-b989-e0a19d3aff2b {
        fill: #fac624;
      }

      .uuid-6d342ecc-dec7-4613-ac7a-0f7a4540bd13 {
        clip-path: url(#uuid-9d42298f-7391-44cb-b959-138eeb98c6cd);
      }

      .uuid-300040ac-68c2-4b47-9e03-60595c406df9 {
        clip-path: url(#uuid-f7440ef7-9021-4aa3-a54f-91cbfc6ee8cb);
      }

      .uuid-7a51cd81-b4c7-4c86-a389-b1b94dcd9061 {
        fill: #026eea;
      }

      .uuid-195598cc-3a14-45d2-b953-52b42b888f42 {
        clip-path: url(#uuid-bc6fa23f-f9d9-4b24-bffe-270e5e4545c0);
      }

      .uuid-eb902eb6-b79a-4145-9ba7-c590f75edab9 {
        fill: url(#uuid-4b1cdf0c-bb47-433a-8631-a4814fed0b98);
      }
    </style>
    <clipPath id="uuid-e976dfc4-a686-40e8-9b94-c55c24646a4f">
      <rect class="uuid-1aafdf7e-12ba-4030-8182-dd1cc2e501dc" width="1378.5" height="469.42"/>
    </clipPath>
    <clipPath id="uuid-92a13139-d108-4fde-a012-781bd4b0a9ed">
      <path class="uuid-1aafdf7e-12ba-4030-8182-dd1cc2e501dc" d="M259.28,74.24l-9.58,9.59c-1.62,1.62-3.8,2.51-6.05,2.51-.51,0-1.03-.05-1.55-.14l-13.33-2.45c-.2-.04-.41-.05-.6-.05-2.31,0-3.95,2.49-2.84,4.67l6.16,12.07c1.28,2.51,1.24,5.49-.1,7.96l-6.45,11.92c-1.18,2.18.45,4.74,2.8,4.74.17,0,.35-.01.52-.04l13.38-2.13c.45-.07.9-.11,1.34-.11,2.32,0,4.57.95,6.2,2.66l9.34,9.82c.65.69,1.49,1,2.31,1,1.48,0,2.92-1.02,3.19-2.71l1.79-11.33c33.71,24.57,55.63,64.35,55.63,109.26,0,13.86-2.09,27.23-5.96,39.82,10.94-2.59,21.27-6.72,30.78-12.15.03-1.31.04-2.62.04-3.94,0-58.8-29.32-110.75-74.12-142.04l10.94-5.23c2.4-1.15,2.44-4.55.07-5.75l-12.08-6.15c-2.51-1.28-4.23-3.71-4.6-6.5l-1.79-13.43c-.23-1.73-1.69-2.79-3.2-2.79-.79,0-1.6.3-2.25.95"/>
    </clipPath>
    <linearGradient id="uuid-4b1cdf0c-bb47-433a-8631-a4814fed0b98" data-name="未命名的渐变" x1="0" y1="469.38" x2="1" y2="469.38" gradientTransform="translate(-95716.01 64.01) rotate(90) scale(204.53 -204.53)" gradientUnits="userSpaceOnUse">
      <stop offset="0" stop-color="#40dbff"/>
      <stop offset="1" stop-color="#026eea"/>
    </linearGradient>
    <clipPath id="uuid-8da7b652-47f6-4b58-9409-7e0cf7e90f64">
      <rect class="uuid-1aafdf7e-12ba-4030-8182-dd1cc2e501dc" width="1378.5" height="469.42"/>
    </clipPath>
    <clipPath id="uuid-bc6fa23f-f9d9-4b24-bffe-270e5e4545c0">
      <rect class="uuid-1aafdf7e-12ba-4030-8182-dd1cc2e501dc" width="1378.5" height="469.42"/>
    </clipPath>
    <clipPath id="uuid-f7440ef7-9021-4aa3-a54f-91cbfc6ee8cb">
      <path class="uuid-1aafdf7e-12ba-4030-8182-dd1cc2e501dc" d="M143.99,84.51C77.57,95.77,24.01,144.86,6.28,208.84c10.43,21.83,27.45,39.9,48.47,51.67-2.18-9.38-3.52-18.92-3.52-29.04,0-53.47,31.08-99.66,76.15-121.56,2.29-1.11,4.23-2.83,5.63-4.97,3.96-6.05,8.11-12.17,12.36-18.22.67-.96-.03-2.24-1.13-2.24-.08,0-.16,0-.25.02"/>
    </clipPath>
    <linearGradient id="uuid-25fc7974-6911-431f-bcd0-436b5490ff39" data-name="未命名的渐变 2" x1="0" y1="469.34" x2="1" y2="469.34" gradientTransform="translate(202.11 -100252.76) rotate(-180) scale(213.97 -213.97)" gradientUnits="userSpaceOnUse">
      <stop offset="0" stop-color="#40dbff"/>
      <stop offset="1" stop-color="#026eea"/>
    </linearGradient>
    <clipPath id="uuid-9d42298f-7391-44cb-b959-138eeb98c6cd">
      <rect class="uuid-1aafdf7e-12ba-4030-8182-dd1cc2e501dc" width="1378.5" height="469.42"/>
    </clipPath>
  </defs>
  <g class="uuid-655b93f4-d8cc-4160-a9cf-56b87de8e65d">
    <path class="uuid-7a51cd81-b4c7-4c86-a389-b1b94dcd9061" d="M272.19,113.15l10.94-5.23c2.4-1.15,2.44-4.55.07-5.75l-12.08-6.14c-2.51-1.28-4.23-3.71-4.6-6.5l-1.79-13.43c-.23-1.73-1.69-2.79-3.2-2.79-.8,0-1.6.3-2.25.95l-9.58,9.59c-1.62,1.62-3.8,2.51-6.05,2.51-.51,0-1.03-.05-1.55-.14l-13.33-2.45c-.21-.04-.41-.06-.6-.06-2.31,0-3.95,2.49-2.83,4.67l6.16,12.07c1.28,2.51,1.24,5.48-.1,7.96l-6.45,11.92c-1.18,2.18.45,4.74,2.8,4.74.17,0,.35-.01.53-.04l13.38-2.13c.45-.07.9-.11,1.34-.11,2.32,0,4.57.95,6.2,2.66l9.34,9.82c.65.69,1.49,1,2.31,1,1.48,0,2.92-1.02,3.19-2.71l1.79-11.33c33.71,24.57,55.63,64.35,55.63,109.26,0,51.09-28.36,95.56-70.2,118.52h65.28c.97,0,1.87-.49,2.39-1.3,17.33-26.96,27.39-59.05,27.39-93.49,0-58.8-29.32-110.75-74.12-142.04"/>
  </g>
  <g class="uuid-cf4eaf75-0b1b-4aec-8404-cb2949b5b5b0">
    <rect class="uuid-eb902eb6-b79a-4145-9ba7-c590f75edab9" x="186.48" y="56.44" width="197.13" height="231.7" transform="translate(-46.73 142.92) rotate(-26.09)"/>
  </g>
  <g class="uuid-9c806cd6-05ab-4ae4-a46e-deb9ba5c4ec5">
    <path class="uuid-7a51cd81-b4c7-4c86-a389-b1b94dcd9061" d="M405.62,350l30.83-89.95h54.35l-27.7,80.82c-1.87,5.46-7.01,9.13-12.78,9.13h-44.7ZM438.04,247.98l-4.45-54.35h54.35l3.25,39.73c.64,7.87-5.57,14.62-13.47,14.62h-39.68ZM447.26,181.55l-4.45-54.35h54.35l3.25,39.73c.64,7.87-5.57,14.62-13.47,14.62h-39.69ZM484.13,350l24.47-86.77h42.27l-21.7,76.93c-1.64,5.82-6.96,9.85-13.01,9.85h-32.04ZM547.38,350l13.35-95.99h-60.39l4.45-30.19h60.07l3.5-24.16h60.39l-3.5,24.16h60.71l-2.75,18.65c-.98,6.63-6.67,11.54-13.37,11.54h-48.72l-11.73,84.33c-.93,6.68-6.64,11.65-13.39,11.65h-48.62ZM639.23,211.74l-20.98-42.27h23.84l1.91-12.08h-66.96c-6.65,0-12.31,4.84-13.35,11.41l-.11.67h24.47l-29,37.08c-2.56,3.27-6.49,5.19-10.65,5.19h-42.04l28.61-36.23h-23.52l5.4-39.41-7.63-8.9h190.39l-5.06,36.65c-.92,6.69-6.64,11.67-13.39,11.67h-11.74l14.86,29.71c1.5,2.99-.68,6.52-4.03,6.52h-41.02ZM629.06,350v-86.77h42.27v73.26c0,7.46-6.05,13.51-13.52,13.51h-28.76Z"/>
    <path class="uuid-7a51cd81-b4c7-4c86-a389-b1b94dcd9061" d="M974.47,350l30.83-89.95h54.35l-27.7,80.82c-1.87,5.46-7.01,9.13-12.78,9.13h-44.7ZM1007.2,247.97l-4.45-54.35h54.35l3.25,39.73c.64,7.87-5.57,14.62-13.47,14.62h-39.68ZM1016.42,181.55l-4.45-54.67h54.35l3.26,40.06c.64,7.87-5.57,14.61-13.47,14.61h-39.69ZM1133.9,168.31l-33.65,170.79c-1.25,6.33-6.8,10.9-13.26,10.9h-36.88l40.68-208.5-9.85-11.44,12.08.32,164.32-9.22-2.84,19.3c-.94,6.34-6.2,11.16-12.6,11.52l-95.51,5.45c-6.16.35-11.3,4.83-12.49,10.88M1240.14,256.78l-11.72,4.23,20.98,88.99h-37.9c-6.28,0-11.73-4.33-13.16-10.44l-23.95-102.71-10.49,75.64,21.93-4.13-2.79,20.41c-.8,5.83-5.27,10.47-11.06,11.48l-55.75,9.74,23.3-164.01c.88-6.16,5.84-10.92,12.02-11.54l108.98-11.01-2.69,19.69c-.84,6.17-5.79,10.96-11.99,11.61l-32.04,3.35,3.84,16.38c1.84,7.87,10.13,12.36,17.73,9.63l17.51-6.31-3.95,28.16c-.7,4.96-4.08,9.13-8.8,10.83"/>
    <path class="uuid-7a51cd81-b4c7-4c86-a389-b1b94dcd9061" d="M824.03,148.01l-.28,1.92c-.96,6.63-6.64,11.55-13.33,11.55h-7.47c-1.85,0-3.51,1.14-4.19,2.86l-14.41,37.06h45.31l-18.34,130.67c-.93,6.65-6.62,11.6-13.34,11.6h-81.76l11.09-80.17h-15.84l39.92-102.02h5.43l1.86-12.91,65.34-.56ZM775.53,303.24l9.77-69.21h-12.67l-11.41,80.8h.97c6.71,0,12.4-4.94,13.34-11.59M846.77,221.04l12.67-63.05h-14.26c2.36-17.25,17.1-30.1,34.5-30.1h110.93l-2.53,18.45c-.91,6.67-6.61,11.65-13.35,11.65h-2.82l-8.87,63.05h18.38l-2.53,18.46c-.91,6.67-6.61,11.65-13.35,11.65h-6.94l-12.02,87.22c-.92,6.67-6.62,11.63-13.35,11.63h-37.05l13.62-98.86h-19.96l-17.2,87.97c-1.24,6.32-6.78,10.89-13.22,10.89h-38.02l19.33-98.86h-12.99l4.12-30.1h14.89ZM895.88,221.04h6.67c6.72,0,12.41-4.95,13.34-11.59l7.24-51.46h-14.58l-12.67,63.05Z"/>
    <path class="uuid-a02ba52c-5ef1-4560-8f27-1dd1fe794817" d="M723.16,134.69c-.63,3.99-1.2,7.6-1.77,11.22-.27,1.72-.49,3.45-.83,5.17-.44,2.25-.65,4.04,1.42,5.64,2.96,2.29,2.01,7.34-1.78,9.63-4.29,2.59-8.82,1.09-10.14-.41-2.74-3.12-1.03-7.83,3.2-10.12,1-.55,1.42-1.12,1.58-2.17.97-6.38,1.97-12.77,3.03-19.15.18-1.06-.11-1.54-1.07-1.8-2.02-.54-4-1.18-5.99-1.78-1.24-.38-2.5-.8-2.26-2.48.24-1.63,1.53-2.17,2.92-2.64,11.9-4.03,23.8-8.08,35.7-12.12,12.98-4.41,25.96-8.85,38.95-13.19,1.04-.35,2.35-.36,3.28-.01,22.77,8.41,45.51,16.89,68.24,25.39.69.26,1.42.64,1.81,1.21.83,1.21-.12,3.06-1.86,3.55-8.39,2.37-16.78,4.68-25.18,6.98-.38.1-.98.05-1.16-.18-2.88-3.92-7.33-5.59-11.92-6.95-11.19-3.32-23.06-4.28-35.18-4.3-1.69,0-2.88,1-3.11,2.46-.24,1.5.69,2.47,2.49,2.48,9.05.08,18.02.52,26.6,2.43,4.41.98,11.03,2.95,14.78,5.13,1.14.67,1.44,1.82,1.18,3.32-.78,4.43-1.4,9.08-2,13.51-.25,1.89-1.09,3.44-2.81,4.17-3.66,1.57-6.65,3.54-10.4,4.44-13.97,3.33-27.77,3.84-41.46,3.31-9.46-.37-18.8-1.21-27.51-4.01-2.76-.89-5.22-2.46-7.71-3.89-1.2-.68-1.36-2.01-1.1-3.54.9-5.23,1.65-10.47,2.55-15.7.23-1.32-.1-1.92-1.34-2.26-3.64-1-7.23-2.14-11.15-3.32"/>
  </g>
  <g>
    <path class="uuid-7a51cd81-b4c7-4c86-a389-b1b94dcd9061" d="M280.38,372.81l6.46,48.11h-14.62l-1.7-13.09h-20.4l-5.7,13.09h-13.85l18.79-45.73-2.46-2.38h33.49ZM261.6,380.97l-8.16,18.7h16.32l-2.46-18.7h-5.69Z"/>
    <path class="uuid-7a51cd81-b4c7-4c86-a389-b1b94dcd9061" d="M345.92,393.21h-26.1l-3.23,19.55h22.78l4.08-3.23-1.62,11.39h-42.42l5.7-35.87h41.65l-.85,8.16Z"/>
    <path class="uuid-7a51cd81-b4c7-4c86-a389-b1b94dcd9061" d="M387.31,393.21h-8.67l-.77,3.23h-16.32l2.46-11.39h39.95l-4.93,31.79,3.31,4.08h-38.33c-1.64,0-2.88-.54-3.7-1.62-.82-1.08-1.23-2.44-1.23-4.08l2.47-15.55h24.48l1.27-6.46ZM376.26,407.83l-.85,4.93h8.16l.85-4.93h-8.16Z"/>
    <path class="uuid-7a51cd81-b4c7-4c86-a389-b1b94dcd9061" d="M448.51,367.88h16.32l-7.31,53.04h-36.72c-1.64,0-2.88-.54-3.7-1.62-.82-1.08-1.23-2.44-1.23-4.08l4.08-30.17h26.1l2.46-17.17ZM435,393.21l-3.15,19.55h10.37l3.06-19.55h-10.29Z"/>
    <path class="uuid-7a51cd81-b4c7-4c86-a389-b1b94dcd9061" d="M519.91,406.22h-26.1l-.85,6.54h22.86l4.08-3.23-2.46,11.39h-35.87c-1.64,0-2.88-.54-3.7-1.62-.82-1.08-1.23-2.44-1.23-4.08l4.08-30.17h42.42l-3.23,21.17ZM496.2,393.21l-.77,4.84h9.77l.85-4.84h-9.86Z"/>
    <path class="uuid-7a51cd81-b4c7-4c86-a389-b1b94dcd9061" d="M595.81,385.05l-4.85,35.87h-14.7l4.08-27.71h-6.54l-4.08,27.71h-13l4.17-27.71h-6.46l-4.25,27.71h-14.71l4.93-33.49-1.7-2.38h57.12Z"/>
    <path class="uuid-7a51cd81-b4c7-4c86-a389-b1b94dcd9061" d="M629.39,385.05l-4.93,35.87h-16.32l4.93-33.49-2.46-2.38h18.78ZM629.39,382.59h-15.55l.85-9.78h16.32l-1.62,9.78Z"/>
    <path class="uuid-7a51cd81-b4c7-4c86-a389-b1b94dcd9061" d="M689.82,393.21h-26.1l-3.23,19.55h22.78l4.08-3.23-1.62,11.39h-42.42l5.7-35.87h41.65l-.85,8.16Z"/>
  </g>
  <g>
    <path class="uuid-7a51cd81-b4c7-4c86-a389-b1b94dcd9061" d="M751.37,372.81l9.01,30.17,17.08-30.17h17.17l-6.54,48.11h-14.71l4.08-25.33-13.01,22.1h-13.09l-6.54-21.25-3.23,24.48h-14.71l6.54-44.88-3.32-3.23h21.25Z"/>
    <path class="uuid-7a51cd81-b4c7-4c86-a389-b1b94dcd9061" d="M848.18,385.05c1.64,0,2.88.67,3.7,2,.82,1.33,1.23,2.82,1.23,4.46l-4.08,29.41h-36.72c-1.64,0-2.88-.54-3.7-1.62-.82-1.08-1.23-2.44-1.23-4.08l4.08-30.17h36.72ZM826.93,393.21l-3.23,19.55h9.78l3.31-19.55h-9.86Z"/>
    <path class="uuid-7a51cd81-b4c7-4c86-a389-b1b94dcd9061" d="M873.6,380.12l-1.61-2.46h17.93l-1.1,7.4h10.11l-1.7,8.16h-9.44l-2.8,19.55h8.16l-1.62,8.16h-17.94c-1.64,0-2.97-.54-3.99-1.62-1.02-1.08-1.33-2.44-.94-4.08l3.32-22.01h-6.54l.85-8.16h6.63l.68-4.93Z"/>
    <path class="uuid-7a51cd81-b4c7-4c86-a389-b1b94dcd9061" d="M930.8,385.05l-4.93,35.87h-16.32l4.93-33.49-2.46-2.38h18.79ZM930.8,382.59h-15.56l.85-9.78h16.32l-1.61,9.78Z"/>
    <path class="uuid-7a51cd81-b4c7-4c86-a389-b1b94dcd9061" d="M974.83,385.05h15.55l-19.63,35.87h-16.32l-8.92-32.64-2.46-3.23h17.17l4.84,20.4,9.78-20.4Z"/>
    <path class="uuid-7a51cd81-b4c7-4c86-a389-b1b94dcd9061" d="M1029.23,393.21h-8.67l-.77,3.23h-16.32l2.46-11.39h39.95l-4.93,31.79,3.32,4.08h-38.33c-1.64,0-2.88-.54-3.7-1.62-.82-1.08-1.23-2.44-1.23-4.08l2.46-15.55h24.48l1.28-6.46ZM1018.18,407.83l-.85,4.93h8.16l.85-4.93h-8.16Z"/>
    <path class="uuid-7a51cd81-b4c7-4c86-a389-b1b94dcd9061" d="M1065.95,380.12l-1.61-2.46h17.93l-1.1,7.4h10.11l-1.7,8.16h-9.44l-2.8,19.55h8.16l-1.62,8.16h-17.94c-1.64,0-2.97-.54-3.99-1.62-1.02-1.08-1.33-2.44-.94-4.08l3.32-22.01h-6.54l.85-8.16h6.63l.68-4.93Z"/>
    <path class="uuid-7a51cd81-b4c7-4c86-a389-b1b94dcd9061" d="M1123.15,385.05l-4.93,35.87h-16.32l4.93-33.49-2.46-2.38h18.79ZM1123.15,382.59h-15.56l.85-9.78h16.32l-1.61,9.78Z"/>
    <path class="uuid-7a51cd81-b4c7-4c86-a389-b1b94dcd9061" d="M1177.89,385.05c1.64,0,2.88.67,3.7,2,.82,1.33,1.23,2.82,1.23,4.46l-4.08,29.41h-36.72c-1.64,0-2.88-.54-3.7-1.62-.82-1.08-1.23-2.44-1.23-4.08l4.08-30.17h36.72ZM1156.64,393.21l-3.23,19.55h9.78l3.31-19.55h-9.86Z"/>
    <path class="uuid-7a51cd81-b4c7-4c86-a389-b1b94dcd9061" d="M1242.49,385.05l-4.93,35.87h-16.32l4.08-27.71h-9.78l-4.08,27.71h-16.32l4.93-33.49-2.46-2.38h44.88Z"/>
  </g>
  <g class="uuid-195598cc-3a14-45d2-b953-52b42b888f42">
    <path class="uuid-158bdafa-8bcd-4e66-b989-e0a19d3aff2b" d="M308.47,219.31c-.23,0-.47.02-.71.07-22.49,4.37-53.97,11.64-99.07,36.06-1.61.87-3.18,1.79-4.73,2.76-7.45,4.66-15.26,9.7-23.35,15.14-1.18.79-2.39,1.17-3.53,1.17-2.31,0-4.31-1.55-5.1-4.32-14.26-49.82-33.7-92.89-51.76-115.69-.58-.73-1.41-1.08-2.24-1.08-.98,0-1.94.49-2.47,1.46-32.56,59.02-83.08,199-99.38,262.38-.46,1.79.9,3.53,2.75,3.53h50.29c1.44,0,2.69-.99,3.02-2.4,12.81-55.17,36.31-137.09,46.94-159.32.21-.43.61-.64,1.01-.64.45,0,.89.26,1.07.75,9.27,25.39,12.76,62.51,12.95,88.02.01,1.54,1.26,2.78,2.8,2.8l31.08-.03c.82,0,1.59-.36,2.13-.98,20.8-23.93,60.76-57.92,85.32-68.8.15-.07.31-.1.46-.1.72,0,1.31.72,1.06,1.48-5.25,15.51-23.49,51.37-29.81,64.34-.91,1.88.46,4.06,2.54,4.06,3.53,0,8.51,0,12.42,0,3.4,0,5.99,0,6.14,0h22.73c1.1,0,2.09-.62,2.56-1.61,11.13-23.53,23.09-55.47,30.75-77.21,1.12-3.19,2.73-8.09,4.43-13.82,2.47-8.34,3.71-17,3.71-25.7v-.17c0-2.93-.11-5.84-.31-8.73-.14-1.96-1.78-3.42-3.67-3.42"/>
    <path class="uuid-a02ba52c-5ef1-4560-8f27-1dd1fe794817" d="M290.54,162.33c-.66-1-2.19-.75-2.48.42v.03c-3.95,16.43-9.06,34.21-15.08,52.4-.36,1.07.62,2.12,1.71,1.82,5.91-1.62,20.66-5.58,31.63-7.47h.04c1.69-.38,2.75-2.06,2.39-3.75-3.28-15.52-9.48-30.28-18.2-43.45"/>
    <path class="uuid-7a51cd81-b4c7-4c86-a389-b1b94dcd9061" d="M133.01,104.94c3.96-6.04,8.11-12.17,12.36-18.22.72-1.03-.14-2.42-1.38-2.21C62.25,98.37,0,169.51,0,255.2,0,287.4,11.8,324.1,27.59,345.26c6.85-20.47,14.61-42.44,22.76-64.31,1.47-3.94,3.11-8.3,4.88-12.95.54-1.43.62-3,.25-4.49-2.61-10.35-4.24-20.84-4.24-32.04,0-53.48,31.08-99.66,76.15-121.56,2.29-1.12,4.23-2.84,5.63-4.97"/>
  </g>
  <g class="uuid-300040ac-68c2-4b47-9e03-60595c406df9">
    <rect class="uuid-151f42b9-48da-4d39-9a24-4b80ffb5add7" x="-36.08" y="61.89" width="224.48" height="221.21" transform="translate(-103.65 115.71) rotate(-48.65)"/>
  </g>
  <g class="uuid-6d342ecc-dec7-4613-ac7a-0f7a4540bd13">
    <path class="uuid-a02ba52c-5ef1-4560-8f27-1dd1fe794817" d="M292.77,4.02C286.47,1.33,279.79,0,272.77,0c-2.32,0-4.67.14-7.06.43-21.42,2.59-45.7,16.78-71.63,42.1-17.3,16.89-38.71,46.18-55.68,72.49-4.44,6.89-10.35,17.11-14.19,24.47-.36.68-.6,1.74-.54,2.45.09,1.2.82,2.36,1.49,3.05.83.85,2.03,2.2,2.91,3.31,6.71,8.47,13.53,19.48,20.19,32.39.53,1.03,2.01,1.02,2.51-.02,2.77-5.7,7.52-14.66,8.82-16.95,17.34-30.68,43.94-71.71,63.84-91.13,24.06-23.49,40.73-31.65,48.99-32.65.6-.07,1.16-.11,1.67-.11,1.1,0,2,.16,2.68.45,7.28,3.1,14.57,21.16,14.54,55.89,0,3.19,0,10.56-.5,18.68,13.61,11.44,25.55,24.84,35.34,39.66.66,1,1.29,1.34,1.87,1.34.05,0,.1,0,.15,0,.56-.05,1.04-.42,1.17-1.49,2.3-18.54,3.96-45.77,3.97-58.14.04-49.68-13.6-80.7-40.54-92.19"/>
  </g>
</svg>